<svg width="64" height="72" viewBox="0 0 64 72" fill="none" xmlns="http://www.w3.org/2000/svg">
<path d="M32 4L59.7128 20V52L32 68L4.28719 52V20L32 4Z" fill="#E6E6FA" stroke="#101010" stroke-width="6.25" stroke-linejoin="round"/>
<path d="M30 16.2269C31.315 15.4677 32.935 15.4677 34.25 16.2269L48.0783 24.2106C49.3932 24.9698 50.2033 26.3729 50.2033 27.8912V43.8588C50.2033 45.3771 49.3932 46.7802 48.0783 47.5394L34.25 55.5231C32.935 56.2823 31.315 56.2823 30 55.5231L16.1717 47.5394C14.8568 46.7802 14.0467 45.3771 14.0467 43.8588V27.8912C14.0467 26.3729 14.8568 24.9698 16.1717 24.2106L30 16.2269Z" stroke="black" stroke-width="4.07715" stroke-linejoin="round"/>
<line x1="24.0832" y1="30.3429" x2="32.9936" y2="45.8149" stroke="black" stroke-width="2.5"/>
<line x1="31.2727" y1="45.3637" x2="40.8623" y2="39.6749" stroke="black" stroke-width="2.5"/>
<path d="M30.8548 25.4112C31.5634 25.002 32.4366 25.002 33.1452 25.4112L40.5976 29.7138C41.3062 30.123 41.7428 30.8791 41.7428 31.6974V40.3026C41.7428 41.1209 41.3062 41.877 40.5976 42.2862L33.1452 46.5888C32.4366 46.998 31.5634 46.998 30.8548 46.5888L23.4024 42.2862C22.6938 41.877 22.2572 41.1209 22.2572 40.3026V31.6974C22.2572 30.8791 22.6938 30.123 23.4024 29.7138L30.8548 25.4112Z" stroke="#9E9E9E" stroke-width="2.19727" stroke-linejoin="round"/>
</svg>
