<svg width="32" height="36" viewBox="0 0 32 36" fill="none" xmlns="http://www.w3.org/2000/svg">
<path d="M16 2L29.8564 10V26L16 34L2.14359 26V10L16 2Z" fill="#E6E6FA" stroke="#101010" stroke-width="3.125" stroke-linejoin="round"/>
<path d="M15 8.11343C15.6575 7.73384 16.4675 7.73384 17.125 8.11343L24.0391 12.1053C24.6966 12.4849 25.1016 13.1864 25.1016 13.9456V21.9294C25.1016 22.6886 24.6966 23.3901 24.0391 23.7697L17.125 27.7616C16.4675 28.1412 15.6575 28.1412 15 27.7616L8.08586 23.7697C7.42838 23.3901 7.02336 22.6886 7.02336 21.9294V13.9456C7.02336 13.1864 7.42838 12.4849 8.08586 12.1053L15 8.11343Z" stroke="black" stroke-width="2.03857" stroke-linejoin="round"/>
<line x1="12.0416" y1="15.1714" x2="16.4968" y2="22.9075" stroke="black" stroke-width="1.25"/>
<line x1="15.6363" y1="22.6818" x2="20.4311" y2="19.8375" stroke="black" stroke-width="1.25"/>
<path d="M15.4274 12.7056C15.7817 12.501 16.2183 12.501 16.5726 12.7056L20.2988 14.8569C20.6531 15.0615 20.8714 15.4395 20.8714 15.8487V20.1513C20.8714 20.5605 20.6531 20.9385 20.2988 21.1431L16.5726 23.2944C16.2183 23.499 15.7817 23.499 15.4274 23.2944L11.7012 21.1431C11.3469 20.9385 11.1286 20.5605 11.1286 20.1513V15.8487C11.1286 15.4395 11.3469 15.0615 11.7012 14.8569L15.4274 12.7056Z" stroke="#9E9E9E" stroke-width="1.09863" stroke-linejoin="round"/>
</svg>
