<svg width="128" height="142" viewBox="0 0 128 142" fill="none" xmlns="http://www.w3.org/2000/svg">
<path d="M64 7L119.426 39V103L64 135L8.57438 103V39L64 7Z" fill="#E6E6FA" stroke="#101010" stroke-width="12.5" stroke-linejoin="round"/>
<path d="M60 31.4537C62.6299 29.9354 65.8701 29.9354 68.5 31.4537L96.1566 47.4213C98.7865 48.9396 100.407 51.7457 100.407 54.7825V86.7175C100.407 89.7543 98.7865 92.5604 96.1566 94.0787L68.5 110.046C65.8701 111.565 62.6299 111.565 60 110.046L32.3434 94.0787C29.7135 92.5604 28.0934 89.7543 28.0934 86.7175V54.7825C28.0934 51.7457 29.7135 48.9396 32.3434 47.4213L60 31.4537Z" stroke="black" stroke-width="8.1543" stroke-linejoin="round"/>
<line x1="48.1664" y1="59.6857" x2="65.9872" y2="90.6298" stroke="black" stroke-width="5"/>
<line x1="62.5452" y1="89.7273" x2="81.7245" y2="78.3499" stroke="black" stroke-width="5"/>
<path d="M61.7096 49.8224C63.1269 49.0041 64.8731 49.0041 66.2904 49.8224L81.1952 58.4276C82.6125 59.2459 83.4856 60.7582 83.4856 62.3947V79.6053C83.4856 81.2418 82.6125 82.7541 81.1952 83.5724L66.2904 92.1776C64.8731 92.9959 63.1269 92.9959 61.7096 92.1776L46.8048 83.5724C45.3875 82.7541 44.5144 81.2418 44.5144 79.6053V62.3947C44.5144 60.7582 45.3875 59.2459 46.8048 58.4276L61.7096 49.8224Z" stroke="#9E9E9E" stroke-width="4.39453" stroke-linejoin="round"/>
</svg>
